<?xml version="1.0" encoding="UTF-8"?>
<svg width="44px" height="44px" viewBox="0 0 44 44" version="1.1" xmlns="http://www.w3.org/2000/svg" xmlns:xlink="http://www.w3.org/1999/xlink">
    <title>Group 3</title>
    <g id="Pages" stroke="none" stroke-width="1" fill="none" fill-rule="evenodd">
        <g id="Index" transform="translate(-564.000000, -3078.000000)">
            <g id="footer" transform="translate(-360.000000, 2851.000000)">
                <g id="Group-3" transform="translate(924.000000, 227.000000)">
                    <path d="M21.893784,1.4839 C33.123244,1.4839 42.226536,10.58728 42.226536,21.816872 C42.226536,33.046068 33.123244,42.149448 21.893784,42.149448 C10.66428,42.149448 1.561076,33.046068 1.561076,21.816872 C1.561076,10.58728 10.66428,1.4839 21.893784,1.4839 Z" id="Shape-2-copy-4" fill="#212A3A"></path>
                    <g id="Group" transform="translate(16.000000, 11.000000)" fill="#FFFFFF" fill-rule="nonzero">
                        <g id="icon-fb">
                            <path d="M12,4 L12,0 L8,0 C5.790861,0 4,1.790861 4,4 L4,8 L0,8 L0,12 L4,12 L4,22 L8,22 L8,12 L12,12 L12,8 L8,8 L8,4 L12,4 Z" id="Shape"></path>
                        </g>
                    </g>
                </g>
            </g>
        </g>
    </g>
</svg>