<?xml version="1.0" encoding="UTF-8"?>
<svg width="44px" height="44px" viewBox="0 0 44 44" version="1.1" xmlns="http://www.w3.org/2000/svg" xmlns:xlink="http://www.w3.org/1999/xlink">
    <title>Group 2</title>
    <g id="Pages" stroke="none" stroke-width="1" fill="none" fill-rule="evenodd">
        <g id="Index" transform="translate(-519.000000, -3078.000000)">
            <g id="footer" transform="translate(-360.000000, 2851.000000)">
                <g id="Group-2" transform="translate(879.000000, 227.000000)">
                    <path d="M22.162712,1.4839 C33.653312,1.4839 42.968288,10.58728 42.968288,21.816872 C42.968288,33.046068 33.653312,42.149448 22.162712,42.149448 C10.672112,42.149448 1.357136,33.046068 1.357136,21.816872 C1.357136,10.58728 10.672112,1.4839 22.162712,1.4839 Z" id="Shape-2-copy-4" fill="#212A3A"></path>
                    <g id="Group" transform="translate(9.000000, 14.000000)" fill="#FFFFFF" fill-rule="nonzero">
                        <g id="Shape">
                            <path d="M15.5402963,11.728125 C16.4608889,11.4384375 17.6395556,13.640625 18.8942963,14.4834375 C19.8360741,15.121875 20.5573333,14.9840625 20.5573333,14.9840625 L23.9017037,14.9371875 C23.9017037,14.9371875 25.6494815,14.8321875 24.8232593,13.4803125 C24.7548889,13.3678125 24.3388889,12.478125 22.334,10.6471875 C20.2376296,8.731875 20.5217037,9.0421875 23.0456296,5.7309375 C24.5834815,3.7125 25.1988148,2.4796875 25.0062222,1.9546875 C24.8213333,1.449375 23.6917778,1.580625 23.6917778,1.580625 L19.9237037,1.6059375 C19.5568148,1.606875 19.2457778,1.7175 19.1042222,2.08875 C19.1013333,2.0925 18.5062222,3.650625 17.7127407,4.9753125 C16.0362222,7.7775 15.366963,7.9265625 15.0896296,7.75125 C14.4531111,7.3453125 14.6139259,6.1228125 14.6139259,5.25375 C14.6139259,2.5378125 15.0299259,1.4053125 13.7992593,1.1128125 C13.3880741,1.0153125 13.0876296,0.9515625 12.038963,0.9421875 C10.6985185,0.9225 9.5602963,0.9421875 8.91511111,1.250625 C8.48659259,1.4596875 8.15822222,1.918125 8.35755556,1.944375 C8.60792593,1.9771875 9.16933333,2.094375 9.46977778,2.49375 C9.85592593,3.01125 9.84437037,4.1709375 9.84437037,4.1709375 C9.84437037,4.1709375 10.0648889,7.36875 9.32437037,7.7653125 C8.81592593,8.0371875 8.12066667,7.4821875 6.62518519,4.9378125 C5.86155556,3.6365625 5.28474074,2.1984375 5.28474074,2.1984375 C5.28474074,2.1984375 5.17303704,1.93125 4.97081481,1.785 C4.73007407,1.6115625 4.39303704,1.55625 4.39303704,1.55625 L0.816592593,1.57875 C0.816592593,1.57875 0.279259259,1.59375 0.0818518519,1.824375 C-0.0934074074,2.02875 0.0674074074,2.450625 0.0674074074,2.450625 C0.0674074074,2.450625 2.86866667,8.9015625 6.04066667,12.1509375 C8.94881481,15.1340625 12.2537037,14.93625 12.2537037,14.93625 L13.7511111,14.93625 C13.7511111,14.93625 14.2027407,14.885625 14.4338519,14.64375 C14.6495556,14.41875 14.6399259,13.9959375 14.6399259,13.9959375 C14.6399259,13.9959375 14.6100741,12.01875 15.5402963,11.728125 Z"></path>
                        </g>
                    </g>
                </g>
            </g>
        </g>
    </g>
</svg>