<?xml version="1.0" encoding="UTF-8"?>
<svg width="44px" height="65px" viewBox="0 0 44 65" version="1.1" xmlns="http://www.w3.org/2000/svg" xmlns:xlink="http://www.w3.org/1999/xlink">
    <title>icon-1</title>
    <g id="Pages" stroke="none" stroke-width="1" fill="none" fill-rule="evenodd">
        <g id="Index" transform="translate(-343.000000, -410.000000)" fill="#FFFFFF">
            <g id="item-1" transform="translate(126.000000, 379.000000)">
                <g id="icon-1" transform="translate(217.000000, 31.000000)">
                    <g id="Shape">
                        <path d="M37.91,30.438 L37.91,41.307 C37.91,41.307 38.015,44.042 35.085,44.042 C32.016,44.042 31.96,41.307 31.96,41.307 L31.96,34.891 C31.96,34.651 31.624,32.982 29.641,32.982 C27.016,32.982 26.971,34.859 26.971,34.859 L26.971,54.08 C26.971,54.08 27,55.943 24.507,55.943 C22,55.943 22,53.96 22,53.96 L22,40.016 C22,40.016 22,37.071 18.195,37.071 C14.141,37.071 14.228,40.196 14.228,40.196 L14.228,43.924 C14.228,43.924 14.107,46.869 9.54,46.869 C4.973,46.869 4.912,42.36 4.912,42.36 L4.912,29.938 C3.168,28.976 0,26.671 0,26.671 L0,56.003 C0,56.003 2.988,65 22,65 C41.012,65 44,56.305 44,56.305 L44,26.671 C41.062,29.5 37.91,30.438 37.91,30.438 Z" fill-rule="nonzero"></path>
                        <path d="M22,0 C1.688,0 0,19.875 0,19.875 L0,22.937 C8.438,29.188 22,29 22,29 C22,29 35.562,29.188 44,22.938 L44,19.876 C44,19.875 42.312,0 22,0 Z M22,25 C10.25,25 7.688,22.625 7.688,22.625 C13.938,19.75 22,19.875 22,19.875 C22,19.875 30.062,19.75 36.312,22.625 C36.312,22.625 33.75,25 22,25 Z M22,12.625 C12.438,12.625 4.312,15.563 4.312,15.563 C8.875,2.625 22,3.062 22,3.062 C22,3.062 35.125,2.624 39.688,15.562 C39.688,15.562 31.562,12.625 22,12.625 Z" fill-rule="nonzero"></path>
                    </g>
                </g>
            </g>
        </g>
    </g>
</svg>