<?xml version="1.0" encoding="UTF-8"?>
<svg width="20px" height="17px" viewBox="0 0 20 17" version="1.1" xmlns="http://www.w3.org/2000/svg" xmlns:xlink="http://www.w3.org/1999/xlink">
    <title>icon-login</title>
    <g id="Pages" stroke="none" stroke-width="1" fill="none" fill-rule="evenodd">
        <g id="Index" transform="translate(-803.000000, -102.000000)" fill="#C5C5C5">
            <g id="top-menu" transform="translate(-40.000000, 0.000000)">
                <g id="icon-login" transform="translate(843.000000, 102.000000)">
                    <g id="Shape">
                        <polygon fill-rule="nonzero" points="14.1666667 8.5 5.71428571 0 5.71428571 6 0 6 0 11 5.71428571 11 5.71428571 17"></polygon>
                        <path d="M16.1771429,15.01 L11.3895238,15.01 L11.3895238,17 L16.1771429,17 C18.2514286,17 19.0380952,15.19 19.0619048,13.974 L19.0619048,3.028 C19.0380952,1.811 18.2514286,0 16.1771429,0 L11.3895238,0 L11.3895238,1.99 L16.1771429,1.99 C16.9761905,1.99 17.1219048,2.671 17.1390476,3.047 L17.1390476,13.951 C17.1228571,14.327 16.9761905,15.01 16.1771429,15.01 Z" fill-rule="nonzero"></path>
                    </g>
                </g>
            </g>
        </g>
    </g>
</svg>