<?xml version="1.0" encoding="UTF-8"?>
<svg width="19px" height="19px" viewBox="0 0 19 19" version="1.1" xmlns="http://www.w3.org/2000/svg" xmlns:xlink="http://www.w3.org/1999/xlink">
    <title>icon-phone</title>
    <g id="Pages" stroke="none" stroke-width="1" fill="none" fill-rule="evenodd">
        <g id="Index" transform="translate(-465.000000, -101.000000)" fill="#B7BFC8" fill-rule="nonzero">
            <g id="top-menu" transform="translate(-40.000000, 0.000000)">
                <g id="icon-phone" transform="translate(505.000000, 101.000000)">
                    <path d="M15.572,18.985 L14.631,18.985 C10.502,18.497 7.474,16.577 5.272,14.121 C3.062,11.66 1.318,8.492 0.978,4.228 L0.978,3.084 C1.056,2.31 1.437,1.78 1.876,1.327 C2.425,0.766 3.25,0.044 4.002,0.019 C4.556,0.001 5.502,0.399 5.881,0.918 C6.21,1.364 6.385,2.257 6.537,2.921 C6.691,3.592 7.042,4.564 6.945,5.21 C6.797,6.217 5.458,6.644 5.066,7.376 C6.373,10.511 8.509,12.815 11.359,14.407 C12.074,14.015 12.705,12.835 13.691,12.812 C14.05,12.803 14.509,12.99 14.875,13.098 C15.277,13.219 15.625,13.373 15.979,13.506 C16.575,13.73 17.627,14.027 17.983,14.527 C18.348,15.04 18.553,15.883 18.473,16.406 C18.309,17.447 16.594,18.603 15.572,18.985 Z" id="Shape"></path>
                </g>
            </g>
        </g>
    </g>
</svg>